<svg xmlns="http://www.w3.org/2000/svg" width="900" height="520" viewBox="0 0 900 520" role="img" aria-label="Reverse-KL strength is not monotonic">
<rect width="100%" height="100%" fill="#FFFFFF" rx="14"/>
<text x="54" y="48" font-family="Inter,system-ui,sans-serif" font-size="24" font-weight="700" fill="#18202A">Reverse-KL strength is not monotonic</text>
<text x="54" y="75" font-family="Inter,system-ui,sans-serif" font-size="14" fill="#637083">Seed 17 adaptive selection; λ=0 is the no-reciprocal control</text>
<line x1="80" y1="415.0" x2="840" y2="415.0" stroke="#DCE3EA"/>
<text x="68" y="420.0" text-anchor="end" font-family="system-ui" font-size="12" fill="#637083">0%</text>
<line x1="80" y1="355.0" x2="840" y2="355.0" stroke="#DCE3EA"/>
<text x="68" y="360.0" text-anchor="end" font-family="system-ui" font-size="12" fill="#637083">11%</text>
<line x1="80" y1="295.0" x2="840" y2="295.0" stroke="#DCE3EA"/>
<text x="68" y="300.0" text-anchor="end" font-family="system-ui" font-size="12" fill="#637083">22%</text>
<line x1="80" y1="235.0" x2="840" y2="235.0" stroke="#DCE3EA"/>
<text x="68" y="240.0" text-anchor="end" font-family="system-ui" font-size="12" fill="#637083">33%</text>
<line x1="80" y1="175.0" x2="840" y2="175.0" stroke="#DCE3EA"/>
<text x="68" y="180.0" text-anchor="end" font-family="system-ui" font-size="12" fill="#637083">44%</text>
<line x1="80" y1="115.0" x2="840" y2="115.0" stroke="#DCE3EA"/>
<text x="68" y="120.0" text-anchor="end" font-family="system-ui" font-size="12" fill="#637083">55%</text>
<text x="156.0" y="442" text-anchor="middle" font-family="system-ui" font-size="13" fill="#18202A">0</text>
<rect x="106.0" y="166.9" width="46" height="248.1" rx="4" fill="#2F6FED"/>
<text x="129.0" y="159.9" text-anchor="middle" font-family="system-ui" font-size="11" fill="#18202A">45.5</text>
<rect x="160.0" y="227.5" width="46" height="187.5" rx="4" fill="#E07A2D"/>
<text x="183.0" y="220.5" text-anchor="middle" font-family="system-ui" font-size="11" fill="#18202A">34.4</text>
<text x="308.0" y="442" text-anchor="middle" font-family="system-ui" font-size="13" fill="#18202A">.001</text>
<rect x="258.0" y="178.3" width="46" height="236.7" rx="4" fill="#2F6FED"/>
<text x="281.0" y="171.3" text-anchor="middle" font-family="system-ui" font-size="11" fill="#18202A">43.4</text>
<rect x="312.0" y="233.2" width="46" height="181.8" rx="4" fill="#E07A2D"/>
<text x="335.0" y="226.2" text-anchor="middle" font-family="system-ui" font-size="11" fill="#18202A">33.3</text>
<text x="460.0" y="442" text-anchor="middle" font-family="system-ui" font-size="13" fill="#18202A">.005</text>
<rect x="410.0" y="166.9" width="46" height="248.1" rx="4" fill="#2F6FED"/>
<text x="433.0" y="159.9" text-anchor="middle" font-family="system-ui" font-size="11" fill="#18202A">45.5</text>
<rect x="464.0" y="233.2" width="46" height="181.8" rx="4" fill="#E07A2D"/>
<text x="487.0" y="226.2" text-anchor="middle" font-family="system-ui" font-size="11" fill="#18202A">33.3</text>
<text x="612.0" y="442" text-anchor="middle" font-family="system-ui" font-size="13" fill="#18202A">.01</text>
<rect x="562.0" y="168.8" width="46" height="246.2" rx="4" fill="#2F6FED"/>
<text x="585.0" y="161.8" text-anchor="middle" font-family="system-ui" font-size="11" fill="#18202A">45.1</text>
<rect x="616.0" y="227.5" width="46" height="187.5" rx="4" fill="#E07A2D"/>
<text x="639.0" y="220.5" text-anchor="middle" font-family="system-ui" font-size="11" fill="#18202A">34.4</text>
<text x="764.0" y="442" text-anchor="middle" font-family="system-ui" font-size="13" fill="#18202A">.05</text>
<rect x="714.0" y="161.2" width="46" height="253.8" rx="4" fill="#2F6FED"/>
<text x="737.0" y="154.2" text-anchor="middle" font-family="system-ui" font-size="11" fill="#18202A">46.5</text>
<rect x="768.0" y="210.5" width="46" height="204.5" rx="4" fill="#E07A2D"/>
<text x="791.0" y="203.5" text-anchor="middle" font-family="system-ui" font-size="11" fill="#18202A">37.5</text>
<rect x="80" y="92" width="13" height="13" rx="2" fill="#2F6FED"/>
<text x="99" y="103" font-family="system-ui" font-size="12" fill="#18202A">Mean accuracy</text>
<rect x="225" y="92" width="13" height="13" rx="2" fill="#E07A2D"/>
<text x="244" y="103" font-family="system-ui" font-size="12" fill="#18202A">All views correct</text>
<text x="80" y="487" font-family="system-ui" font-size="12" fill="#637083">λ=.05 is best here, unlike the paper’s λ=.01 optimum; this is a short frozen-teacher LoRA approximation.</text>
</svg>
